<?xml version="1.0" encoding="UTF-8" standalone="no"?>
<!DOCTYPE svg PUBLIC "-//W3C//DTD SVG 1.1//EN" "http://www.w3.org/Graphics/SVG/1.1/DTD/svg11.dtd">
<svg width="100%" height="100%" viewBox="0 0 24 24" version="1.1" xmlns="http://www.w3.org/2000/svg" xmlns:xlink="http://www.w3.org/1999/xlink" xml:space="preserve" xmlns:serif="http://www.serif.com/" style="fill-rule:evenodd;clip-rule:evenodd;stroke-linejoin:round;stroke-miterlimit:2;">
    <g id="Max" transform="matrix(2.59016,0,0,2.59016,-166.721,-68.2951)">
        <path d="M73,31.243L72,32.243L72,33.64C72,33.839 71.839,34 71.64,34L70.243,34L69.243,35L72.52,35C72.785,35 73,34.785 73,34.52L73,31.243ZM68.757,27L65.48,27C65.215,27 65,27.215 65,27.48L65,30.757L66,29.757L66,28.36C66,28.161 66.161,28 66.36,28L67.757,28L68.757,27Z" style="fill:rgb(200,200,200);"/>
    </g>
</svg>
